<svg width="19" height="18" viewBox="0 0 19 18" fill="none" xmlns="http://www.w3.org/2000/svg">
<path fill-rule="evenodd" clip-rule="evenodd" d="M14.8917 0.673976L18.0019 3.66821C18.8714 4.46568 18.9069 5.79003 18.0814 6.62965L7.86533 16.4647C7.49532 16.8179 7.01035 17.0379 6.49184 17.0876L1.75841 17.5029H1.65625C1.35453 17.5045 1.06453 17.3905 0.850317 17.186C0.61085 16.9563 0.490175 16.6358 0.521134 16.3117L1.00923 11.7548C1.06089 11.2556 1.28934 10.7888 1.65625 10.4325L11.8723 0.597481C12.7529 -0.118783 14.0514 -0.0858874 14.8917 0.673976ZM11.1004 4.38944L14.1425 7.31811L16.4127 5.18718L13.3139 2.20388L11.1004 4.38944Z" fill="#334253"/>
</svg>
