<svg width="27" height="28" viewBox="0 0 27 28" fill="none" xmlns="http://www.w3.org/2000/svg">
<path d="M24.6668 6H2" stroke="black" stroke-width="4" stroke-linecap="round"/>
<path d="M22.4443 9.33331L21.8309 18.5321C21.5949 22.072 21.4769 23.842 20.3236 24.9209C19.1703 26 17.3964 26 13.8487 26H12.8176C9.2698 26 7.49593 26 6.34259 24.9209C5.18925 23.842 5.07125 22.072 4.83525 18.5321L4.222 9.33331" stroke="black" stroke-width="4" stroke-linecap="round"/>
<path d="M6 6C6.07451 6 6.11176 6 6.14553 5.99915C7.24345 5.97132 8.21203 5.27321 8.58563 4.24043C8.59712 4.20865 8.60889 4.17332 8.63245 4.10263L8.76191 3.71428C8.87241 3.38277 8.92767 3.21701 9.00095 3.07627C9.29335 2.51476 9.83432 2.12485 10.4595 2.02503C10.6162 2 10.7909 2 11.1404 2H15.5263C15.8757 2 16.0505 2 16.2072 2.02503C16.8324 2.12485 17.3733 2.51476 17.6657 3.07627C17.7391 3.21701 17.7943 3.38277 17.9048 3.71428L18.0343 4.10263C18.0577 4.17323 18.0696 4.20868 18.0811 4.24043C18.4547 5.27321 19.4232 5.97132 20.5212 5.99915C20.5549 6 20.5921 6 20.6667 6" stroke="black" stroke-width="4"/>
</svg>
