<svg width="24" height="32" viewBox="0 0 24 32" fill="none" xmlns="http://www.w3.org/2000/svg">
<path d="M21.2282 0H2.77501C1.27366 0 0.0534058 1.22025 0.0534058 2.71986V30.6002C0.0534058 31.0639 0.282907 31.496 0.665278 31.757C1.04765 32.018 1.53488 32.0728 1.96672 31.902L12.0004 27.9372L22.0354 31.902C22.2002 31.9679 22.375 31.9993 22.5485 31.9993C22.8247 31.9993 23.1002 31.9177 23.3343 31.7576C23.7182 31.4973 23.9466 31.0644 23.9466 30.6015V2.71986C23.9477 1.22025 22.7275 0 21.2282 0ZM16.6641 15.3913L14.2258 17.1629L15.1566 20.0298C15.219 20.2219 15.1508 20.4328 14.9877 20.5511C14.905 20.6098 14.8095 20.6402 14.714 20.6402C14.6179 20.6402 14.5218 20.6099 14.4391 20.5511L12.0011 18.7798L9.56293 20.5511C9.39959 20.6693 9.17824 20.6693 9.01537 20.5511C8.85261 20.4328 8.78209 20.2225 8.84533 20.0298L9.7775 17.1629L7.33874 15.3913C7.17539 15.2725 7.1072 15.0625 7.16918 14.87C7.23126 14.6778 7.41032 14.5473 7.61305 14.5473H10.6266L11.5589 11.6819C11.6824 11.2972 12.3196 11.2972 12.4454 11.6819L13.3765 14.5473H16.3907C16.5929 14.5473 16.7711 14.6778 16.8339 14.87C16.8959 15.0619 16.8271 15.2725 16.6641 15.3913Z" fill="black"/>
</svg>
