<svg width="29" height="25" viewBox="0 0 29 25" fill="none" xmlns="http://www.w3.org/2000/svg">
<path d="M4.18777 14.0678L13.4579 22.7762C13.7773 23.0761 13.9369 23.2261 14.1251 23.263C14.2099 23.2797 14.2971 23.2797 14.3819 23.263C14.5702 23.2261 14.7298 23.0761 15.0491 22.7762L24.3193 14.0678C26.9275 11.6177 27.2442 7.58567 25.0506 4.7583L24.6382 4.22665C22.0139 0.844308 16.7463 1.41155 14.9025 5.27507C14.6419 5.82082 13.8651 5.82082 13.6046 5.27507C11.7607 1.41155 6.49317 0.844308 3.86893 4.22667L3.45646 4.7583C1.26281 7.58567 1.57954 11.6177 4.18777 14.0678Z" stroke="#222222" stroke-width="3.2"/>
</svg>
